<mxfile host="app.diagrams.net" modified="2021-06-21T09:34:24.069Z" agent="5.0 (Windows NT 10.0; Win64; x64) AppleWebKit/537.36 (KHTML, like Gecko) Chrome/91.0.4472.77 Safari/537.36" etag="Ku9iI7WVJEE72y8rN6WP" version="14.8.0" type="github">
  <diagram id="MYlU0N0oO4ZhwDdz9Y0f" name="Page-1">
    <mxGraphModel dx="1422" dy="2051" grid="1" gridSize="10" guides="1" tooltips="1" connect="1" arrows="1" fold="1" page="1" pageScale="1" pageWidth="827" pageHeight="1169" math="0" shadow="0">
      <root>
        <mxCell id="0" />
        <mxCell id="1" parent="0" />
        <mxCell id="SQoL8yLRd0uiAtqwrtF4-109" value="" style="group" vertex="1" connectable="0" parent="1">
          <mxGeometry x="240" y="-60" width="140" height="130" as="geometry" />
        </mxCell>
        <mxCell id="SQoL8yLRd0uiAtqwrtF4-108" value="" style="rounded=0;whiteSpace=wrap;html=1;labelBackgroundColor=none;fillColor=#f5f5f5;strokeColor=#666666;fontColor=#333333;" vertex="1" parent="SQoL8yLRd0uiAtqwrtF4-109">
          <mxGeometry width="140" height="130" as="geometry" />
        </mxCell>
        <mxCell id="SQoL8yLRd0uiAtqwrtF4-105" value="Selected Locations" style="rounded=1;whiteSpace=wrap;html=1;labelBackgroundColor=none;fillColor=#d5e8d4;strokeColor=#82b366;" vertex="1" parent="SQoL8yLRd0uiAtqwrtF4-109">
          <mxGeometry x="10" y="90" width="120" height="30" as="geometry" />
        </mxCell>
        <mxCell id="SQoL8yLRd0uiAtqwrtF4-106" value="Delivery Type" style="rounded=1;whiteSpace=wrap;html=1;labelBackgroundColor=none;fillColor=#d5e8d4;strokeColor=#82b366;" vertex="1" parent="SQoL8yLRd0uiAtqwrtF4-109">
          <mxGeometry x="10" y="50" width="120" height="30" as="geometry" />
        </mxCell>
        <mxCell id="SQoL8yLRd0uiAtqwrtF4-107" value="Vendor ID" style="rounded=1;whiteSpace=wrap;html=1;labelBackgroundColor=none;fillColor=#d5e8d4;strokeColor=#82b366;" vertex="1" parent="SQoL8yLRd0uiAtqwrtF4-109">
          <mxGeometry x="10" y="10" width="120" height="30" as="geometry" />
        </mxCell>
        <mxCell id="SQoL8yLRd0uiAtqwrtF4-117" style="edgeStyle=orthogonalEdgeStyle;rounded=0;orthogonalLoop=1;jettySize=auto;html=1;entryX=0.75;entryY=0;entryDx=0;entryDy=0;startArrow=none;startFill=0;endArrow=classic;endFill=1;strokeColor=#1A1A1A;exitX=0.75;exitY=1;exitDx=0;exitDy=0;" edge="1" parent="1" source="SQoL8yLRd0uiAtqwrtF4-110" target="SQoL8yLRd0uiAtqwrtF4-113">
          <mxGeometry relative="1" as="geometry" />
        </mxCell>
        <mxCell id="SQoL8yLRd0uiAtqwrtF4-129" style="edgeStyle=orthogonalEdgeStyle;rounded=0;orthogonalLoop=1;jettySize=auto;html=1;entryX=1;entryY=0.75;entryDx=0;entryDy=0;fontSize=11;startArrow=none;startFill=0;endArrow=classic;endFill=1;strokeColor=#1A1A1A;exitX=0;exitY=0.75;exitDx=0;exitDy=0;" edge="1" parent="1" source="SQoL8yLRd0uiAtqwrtF4-110" target="SQoL8yLRd0uiAtqwrtF4-120">
          <mxGeometry relative="1" as="geometry" />
        </mxCell>
        <mxCell id="SQoL8yLRd0uiAtqwrtF4-110" value="Init" style="rounded=1;whiteSpace=wrap;html=1;labelBackgroundColor=none;fillColor=#dae8fc;strokeColor=#6c8ebf;" vertex="1" parent="1">
          <mxGeometry x="400" y="120" width="120" height="60" as="geometry" />
        </mxCell>
        <mxCell id="SQoL8yLRd0uiAtqwrtF4-124" style="edgeStyle=orthogonalEdgeStyle;rounded=0;orthogonalLoop=1;jettySize=auto;html=1;entryX=0.5;entryY=0;entryDx=0;entryDy=0;entryPerimeter=0;startArrow=none;startFill=0;endArrow=classic;endFill=1;strokeColor=#1A1A1A;exitX=0.5;exitY=1;exitDx=0;exitDy=0;" edge="1" parent="1" source="SQoL8yLRd0uiAtqwrtF4-113" target="SQoL8yLRd0uiAtqwrtF4-123">
          <mxGeometry relative="1" as="geometry" />
        </mxCell>
        <mxCell id="SQoL8yLRd0uiAtqwrtF4-125" value="&lt;b style=&quot;font-size: 11px;&quot;&gt;Build&amp;amp;Save Cache Map&lt;/b&gt;" style="edgeLabel;html=1;align=center;verticalAlign=middle;resizable=0;points=[];fontSize=11;" vertex="1" connectable="0" parent="SQoL8yLRd0uiAtqwrtF4-124">
          <mxGeometry x="0.168" y="-4" relative="1" as="geometry">
            <mxPoint x="-29" y="-14" as="offset" />
          </mxGeometry>
        </mxCell>
        <mxCell id="SQoL8yLRd0uiAtqwrtF4-126" style="edgeStyle=orthogonalEdgeStyle;rounded=0;orthogonalLoop=1;jettySize=auto;html=1;entryX=0.25;entryY=1;entryDx=0;entryDy=0;fontSize=11;startArrow=none;startFill=0;endArrow=classic;endFill=1;strokeColor=#1A1A1A;exitX=0.25;exitY=0;exitDx=0;exitDy=0;" edge="1" parent="1" source="SQoL8yLRd0uiAtqwrtF4-113" target="SQoL8yLRd0uiAtqwrtF4-110">
          <mxGeometry relative="1" as="geometry" />
        </mxCell>
        <mxCell id="SQoL8yLRd0uiAtqwrtF4-113" value="Product Offering Cache Resolver" style="rounded=1;whiteSpace=wrap;html=1;labelBackgroundColor=none;fillColor=#f8cecc;strokeColor=#b85450;" vertex="1" parent="1">
          <mxGeometry x="400" y="250" width="120" height="60" as="geometry" />
        </mxCell>
        <mxCell id="SQoL8yLRd0uiAtqwrtF4-118" style="edgeStyle=orthogonalEdgeStyle;rounded=0;orthogonalLoop=1;jettySize=auto;html=1;entryX=1;entryY=0.5;entryDx=0;entryDy=0;startArrow=none;startFill=0;endArrow=classic;endFill=1;strokeColor=#1A1A1A;" edge="1" parent="1" source="SQoL8yLRd0uiAtqwrtF4-115" target="SQoL8yLRd0uiAtqwrtF4-113">
          <mxGeometry relative="1" as="geometry" />
        </mxCell>
        <mxCell id="SQoL8yLRd0uiAtqwrtF4-119" value="&lt;b&gt;getVendorProductOfferingByDeliveryType&lt;/b&gt;" style="edgeLabel;html=1;align=center;verticalAlign=middle;resizable=0;points=[];" vertex="1" connectable="0" parent="SQoL8yLRd0uiAtqwrtF4-118">
          <mxGeometry x="0.2875" y="2" relative="1" as="geometry">
            <mxPoint x="41" y="-12" as="offset" />
          </mxGeometry>
        </mxCell>
        <mxCell id="SQoL8yLRd0uiAtqwrtF4-115" value="Product Service" style="shape=cube;whiteSpace=wrap;html=1;boundedLbl=1;backgroundOutline=1;darkOpacity=0.05;darkOpacity2=0.1;labelBackgroundColor=none;fillColor=#e1d5e7;strokeColor=#9673a6;" vertex="1" parent="1">
          <mxGeometry x="770" y="240" width="120" height="80" as="geometry" />
        </mxCell>
        <mxCell id="SQoL8yLRd0uiAtqwrtF4-121" style="edgeStyle=orthogonalEdgeStyle;rounded=0;orthogonalLoop=1;jettySize=auto;html=1;startArrow=none;startFill=0;endArrow=classic;endFill=1;strokeColor=#1A1A1A;exitX=1;exitY=0.25;exitDx=0;exitDy=0;entryX=0;entryY=0.5;entryDx=0;entryDy=0;" edge="1" parent="1" source="SQoL8yLRd0uiAtqwrtF4-120" target="SQoL8yLRd0uiAtqwrtF4-127">
          <mxGeometry relative="1" as="geometry">
            <mxPoint x="270" y="135" as="targetPoint" />
          </mxGeometry>
        </mxCell>
        <mxCell id="SQoL8yLRd0uiAtqwrtF4-131" style="edgeStyle=orthogonalEdgeStyle;rounded=0;orthogonalLoop=1;jettySize=auto;html=1;fontSize=11;startArrow=none;startFill=0;endArrow=classic;endFill=1;strokeColor=#1A1A1A;entryX=0.5;entryY=0;entryDx=0;entryDy=0;" edge="1" parent="1" source="SQoL8yLRd0uiAtqwrtF4-120" target="SQoL8yLRd0uiAtqwrtF4-135">
          <mxGeometry relative="1" as="geometry">
            <mxPoint x="240" y="290" as="targetPoint" />
          </mxGeometry>
        </mxCell>
        <mxCell id="SQoL8yLRd0uiAtqwrtF4-120" value="Contract Breakdown Service" style="rounded=1;whiteSpace=wrap;html=1;labelBackgroundColor=none;fillColor=#ffe6cc;strokeColor=#d79b00;" vertex="1" parent="1">
          <mxGeometry x="110" y="120" width="120" height="60" as="geometry" />
        </mxCell>
        <mxCell id="SQoL8yLRd0uiAtqwrtF4-122" style="edgeStyle=orthogonalEdgeStyle;rounded=0;orthogonalLoop=1;jettySize=auto;html=1;startArrow=none;startFill=0;endArrow=classic;endFill=1;strokeColor=#1A1A1A;entryX=0.5;entryY=0;entryDx=0;entryDy=0;" edge="1" parent="1" source="SQoL8yLRd0uiAtqwrtF4-108" target="SQoL8yLRd0uiAtqwrtF4-127">
          <mxGeometry relative="1" as="geometry">
            <mxPoint x="290" y="100" as="targetPoint" />
          </mxGeometry>
        </mxCell>
        <mxCell id="SQoL8yLRd0uiAtqwrtF4-132" style="edgeStyle=orthogonalEdgeStyle;rounded=0;orthogonalLoop=1;jettySize=auto;html=1;fontSize=11;startArrow=none;startFill=0;endArrow=classic;endFill=1;strokeColor=#1A1A1A;entryX=1;entryY=0.5;entryDx=0;entryDy=0;" edge="1" parent="1" source="SQoL8yLRd0uiAtqwrtF4-123" target="SQoL8yLRd0uiAtqwrtF4-135">
          <mxGeometry relative="1" as="geometry">
            <mxPoint x="500" y="450" as="targetPoint" />
          </mxGeometry>
        </mxCell>
        <mxCell id="SQoL8yLRd0uiAtqwrtF4-123" value="Product Cache Instance" style="shape=cylinder3;whiteSpace=wrap;html=1;boundedLbl=1;backgroundOutline=1;size=15;labelBackgroundColor=none;fillColor=#b1ddf0;strokeColor=#10739e;" vertex="1" parent="1">
          <mxGeometry x="620" y="430" width="190" height="80" as="geometry" />
        </mxCell>
        <mxCell id="SQoL8yLRd0uiAtqwrtF4-128" style="edgeStyle=orthogonalEdgeStyle;rounded=0;orthogonalLoop=1;jettySize=auto;html=1;entryX=0;entryY=0.25;entryDx=0;entryDy=0;fontSize=11;startArrow=none;startFill=0;endArrow=classic;endFill=1;strokeColor=#1A1A1A;" edge="1" parent="1" source="SQoL8yLRd0uiAtqwrtF4-127" target="SQoL8yLRd0uiAtqwrtF4-110">
          <mxGeometry relative="1" as="geometry" />
        </mxCell>
        <mxCell id="SQoL8yLRd0uiAtqwrtF4-127" value="" style="ellipse;whiteSpace=wrap;html=1;aspect=fixed;labelBackgroundColor=none;fontSize=11;fillColor=#f5f5f5;strokeColor=#666666;fontColor=#333333;" vertex="1" parent="1">
          <mxGeometry x="300" y="125" width="20" height="20" as="geometry" />
        </mxCell>
        <mxCell id="SQoL8yLRd0uiAtqwrtF4-136" value="" style="group" vertex="1" connectable="0" parent="1">
          <mxGeometry x="55" y="400" width="230" height="140" as="geometry" />
        </mxCell>
        <mxCell id="SQoL8yLRd0uiAtqwrtF4-135" value="" style="rounded=0;whiteSpace=wrap;html=1;labelBackgroundColor=none;fontSize=11;fillColor=#f5f5f5;strokeColor=#666666;fontColor=#333333;" vertex="1" parent="SQoL8yLRd0uiAtqwrtF4-136">
          <mxGeometry width="230" height="140" as="geometry" />
        </mxCell>
        <mxCell id="SQoL8yLRd0uiAtqwrtF4-130" value="&lt;font style=&quot;font-size: 12px&quot;&gt;QD Contract Processor&lt;/font&gt;" style="rounded=1;whiteSpace=wrap;html=1;labelBackgroundColor=none;fontSize=11;fillColor=#f8cecc;strokeColor=#b85450;" vertex="1" parent="SQoL8yLRd0uiAtqwrtF4-136">
          <mxGeometry x="10" y="10" width="150" height="60" as="geometry" />
        </mxCell>
        <mxCell id="SQoL8yLRd0uiAtqwrtF4-133" value="&lt;font style=&quot;font-size: 12px&quot;&gt;QD Contract Processor&lt;/font&gt;" style="rounded=1;whiteSpace=wrap;html=1;labelBackgroundColor=none;fontSize=11;fillColor=#f8cecc;strokeColor=#b85450;" vertex="1" parent="SQoL8yLRd0uiAtqwrtF4-136">
          <mxGeometry x="35" y="40" width="150" height="60" as="geometry" />
        </mxCell>
        <mxCell id="SQoL8yLRd0uiAtqwrtF4-134" value="&lt;font style=&quot;font-size: 12px&quot;&gt;QD Contract Processor&lt;/font&gt;" style="rounded=1;whiteSpace=wrap;html=1;labelBackgroundColor=none;fontSize=11;fillColor=#f8cecc;strokeColor=#b85450;" vertex="1" parent="SQoL8yLRd0uiAtqwrtF4-136">
          <mxGeometry x="65" y="70" width="150" height="60" as="geometry" />
        </mxCell>
      </root>
    </mxGraphModel>
  </diagram>
</mxfile>
